<svg width="27" height="27" viewBox="0 0 27 27" fill="none" xmlns="http://www.w3.org/2000/svg">
<rect width="27" height="27" rx="13.5" fill="#E8DCFF"/>
<path d="M13.4998 19.2863C11.9654 19.2863 10.4937 18.6767 9.40871 17.5917C8.32368 16.5066 7.71411 15.035 7.71411 13.5006C7.71411 11.9661 8.32368 10.4945 9.40871 9.40944C10.4937 8.32441 11.9654 7.71484 13.4998 7.71484V9.72102C12.4974 9.72102 11.5361 10.1192 10.8273 10.828C10.1185 11.5368 9.72029 12.4982 9.72029 13.5006C9.72029 14.503 10.1185 15.4643 10.8273 16.1731C11.5361 16.8819 12.4974 17.2801 13.4998 17.2801L13.4998 19.2863Z" fill="#643AB4"/>
<path d="M13.5004 19.2863C15.0349 19.2863 16.5065 18.6767 17.5915 17.5917C18.6766 16.5066 19.2861 15.035 19.2861 13.5006C19.2861 11.9661 18.6766 10.4945 17.5915 9.40944C16.5065 8.32441 15.0349 7.71484 13.5004 7.71484V13.5006L13.5004 19.2863Z" fill="#643AB4"/>
</svg>
